<?xml version="1.0" standalone="no"?>
<!DOCTYPE svg PUBLIC "-//W3C//DTD SVG 20010904//EN"
 "http://www.w3.org/TR/2001/REC-SVG-20010904/DTD/svg10.dtd">
<svg version="1.0" xmlns="http://www.w3.org/2000/svg"
 width="1080.000000pt" height="1080.000000pt" viewBox="0 0 1080.000000 1080.000000"
 preserveAspectRatio="xMidYMid meet">
<metadata>
Created by potrace 1.14, written by Peter Selinger 2001-2017
</metadata>
<g transform="translate(0.000000,1080.000000) scale(0.100000,-0.100000)"
fill="#000000" stroke="none">
<path d="M5242 8771 c-36 -38 -37 -40 -37 -117 l0 -79 -115 -5 c-75 -3 -122
-10 -136 -19 -57 -38 -71 -134 -26 -179 40 -41 64 -48 171 -47 55 1 102 -1
102 -4 1 -3 2 -164 3 -357 1 -318 3 -353 19 -378 10 -15 29 -32 43 -38 13 -6
24 -15 24 -19 0 -4 17 -7 38 -6 43 3 94 38 112 78 7 16 11 144 13 375 l2 349
100 1 c55 1 106 2 112 3 7 0 31 17 53 37 31 29 40 43 40 70 0 49 -15 79 -53
108 -32 24 -42 26 -144 27 l-110 2 -1 73 c-1 79 -11 107 -51 141 -19 17 -39
23 -74 23 -42 0 -51 -4 -85 -39z"/>
<path d="M3360 7918 c-30 -11 -62 -27 -71 -34 -8 -8 -20 -14 -26 -14 -20 0
-114 -113 -138 -165 -75 -162 -44 -343 79 -469 88 -89 175 -124 308 -124 73 0
90 3 155 34 313 149 333 568 36 743 -29 17 -53 29 -53 26 0 -2 -15 2 -33 10
-50 21 -191 17 -257 -7z"/>
<path d="M6948 7916 c-83 -34 -123 -62 -171 -119 -41 -49 -56 -75 -87 -155
-19 -49 -17 -177 4 -239 24 -73 87 -165 135 -199 22 -16 39 -34 36 -41 -2 -8
2 -10 12 -6 10 4 14 2 10 -4 -3 -5 4 -9 16 -9 15 1 21 -4 19 -14 -3 -12 -1
-12 9 -3 9 9 18 9 39 -2 34 -18 210 -15 255 4 17 7 30 11 30 9 0 -1 14 7 32
20 17 12 35 22 39 22 17 0 114 114 137 163 14 28 31 83 38 120 15 79 4 153
-35 241 -22 49 -120 166 -140 166 -5 0 -17 6 -25 14 -64 55 -253 73 -353 32z"/>
<path d="M4800 7607 c-19 -7 -241 -118 -493 -245 -252 -128 -463 -230 -469
-226 -7 5 -8 3 -3 -6 6 -10 4 -12 -9 -7 -9 4 -15 3 -12 -2 7 -11 -22 -23 -36
-14 -6 3 -8 2 -5 -3 5 -9 -152 -91 -958 -499 -203 -103 -383 -199 -398 -214
-43 -39 -57 -74 -57 -141 0 -108 71 -180 179 -180 49 0 77 12 332 140 153 77
287 144 296 149 10 6 37 20 61 31 l42 20 0 -906 c0 -499 -3 -904 -6 -901 -4 3
-15 2 -26 -4 -11 -6 -31 -13 -44 -15 -35 -6 -64 -12 -109 -23 -22 -6 -41 -10
-42 -11 -2 0 -4 0 -5 -1 -2 0 -15 -2 -31 -4 -15 -2 -60 -8 -100 -14 -88 -13
-346 -8 -442 9 -62 10 -183 42 -225 58 -8 3 -19 6 -25 7 -5 1 -35 13 -67 27
-31 14 -67 29 -80 33 -12 4 -25 10 -28 14 -3 3 -26 17 -51 30 -51 27 -83 26
-55 -1 9 -9 16 -20 16 -25 0 -4 9 -14 20 -21 12 -7 18 -17 15 -22 -3 -6 0 -10
7 -11 7 0 29 -20 48 -44 19 -24 40 -44 45 -44 6 -1 27 -17 48 -37 20 -20 37
-33 37 -29 0 3 8 -1 17 -11 27 -27 131 -92 169 -106 19 -7 34 -15 34 -18 0 -5
57 -27 90 -35 3 -1 32 -9 65 -19 79 -25 124 -29 280 -29 133 0 200 6 270 25
41 10 79 19 105 23 33 5 76 18 87 27 7 5 16 7 22 4 5 -3 22 1 37 9 16 8 45 18
64 21 19 4 45 13 57 21 12 8 27 12 33 8 5 -3 10 -2 10 3 0 5 12 12 28 15 15 3
79 24 142 47 119 43 270 92 400 131 41 12 81 27 89 33 12 9 13 8 6 -3 -6 -11
-5 -12 6 -5 8 5 17 9 22 10 4 1 9 2 12 4 3 1 24 2 48 2 23 0 52 5 65 9 14 5
22 5 22 -2 0 -6 5 -7 13 -2 16 11 137 10 137 -1 0 -5 7 -3 15 4 12 10 15 10
15 -1 0 -11 2 -11 10 1 5 8 10 10 10 4 0 -7 15 -13 33 -13 45 -2 68 -6 100
-20 16 -6 34 -11 41 -11 7 0 16 -3 20 -7 4 -5 11 -8 14 -9 17 -2 49 -19 78
-40 16 -12 46 -29 65 -37 31 -14 60 -35 112 -81 9 -9 22 -16 27 -16 6 0 10 -4
10 -10 0 -5 5 -10 12 -10 17 0 228 -224 228 -242 0 -5 7 -16 15 -24 13 -14 17
-14 30 0 8 8 15 19 15 24 0 8 42 57 146 169 22 23 66 62 99 87 33 25 67 51 75
58 8 7 18 12 22 10 5 -1 8 3 8 9 0 5 19 19 43 29 24 11 54 28 67 40 12 11 29
20 37 20 7 0 13 4 13 9 0 6 9 8 20 6 11 -2 20 1 20 6 0 6 4 8 9 4 5 -3 12 -1
15 4 3 4 20 12 38 16 36 9 47 12 51 14 1 2 14 4 30 6 19 3 25 0 20 -8 -3 -7 3
-4 14 6 16 14 22 15 26 5 4 -10 6 -10 6 1 1 11 4 11 16 1 8 -7 15 -8 15 -3 0
10 130 10 148 -1 7 -4 12 -2 12 4 0 6 5 8 10 5 6 -4 34 -9 63 -12 55 -5 92
-10 92 -13 0 -2 38 -11 53 -12 6 -1 12 -5 12 -10 0 -4 8 -8 18 -8 17 0 201
-53 237 -68 23 -10 36 -15 240 -84 83 -28 155 -54 160 -58 6 -4 24 -10 40 -13
17 -3 44 -11 60 -18 17 -7 35 -13 40 -14 6 -2 30 -8 55 -15 57 -15 80 -21 105
-25 11 -1 38 -8 60 -14 22 -5 65 -14 95 -18 61 -8 293 -9 355 -1 63 8 241 62
255 77 3 4 28 17 55 30 51 24 177 109 183 123 2 4 8 8 12 8 5 0 20 10 33 23
12 12 36 34 52 49 45 40 105 108 105 119 0 5 4 9 9 9 5 0 11 9 14 19 6 23 13
25 -128 -42 -177 -85 -302 -125 -450 -142 -99 -12 -322 -14 -400 -4 -44 6 -91
13 -105 14 -14 2 -45 8 -70 14 -25 6 -56 14 -70 16 -30 5 -54 11 -95 23 l-30
8 -3 902 -2 902 42 -20 c24 -11 51 -25 61 -31 9 -5 143 -72 296 -149 255 -128
283 -140 332 -140 108 0 179 72 179 180 0 67 -14 102 -57 141 -15 15 -201 115
-413 222 -705 357 -1051 532 -1510 765 -250 126 -470 233 -488 237 -48 10
-123 -11 -160 -46 -58 -55 -78 -141 -48 -213 24 -57 53 -78 216 -156 41 -19
104 -52 140 -72 36 -20 72 -38 80 -40 8 -2 21 -9 29 -16 7 -7 20 -11 28 -8 8
3 12 2 9 -2 -3 -4 85 -53 195 -107 l199 -100 0 -973 0 -974 -37 5 c-21 2 -49
7 -63 11 -64 17 -254 23 -340 12 -103 -13 -272 -75 -325 -118 -26 -21 -127
-88 -133 -88 -9 0 -9 856 0 865 3 3 100 -41 216 -99 137 -70 220 -106 242
-106 92 0 144 125 77 188 -20 19 -140 82 -567 298 l-155 79 -90 0 c-85 0 -94
-2 -163 -38 -40 -21 -198 -101 -350 -178 -152 -77 -287 -150 -299 -161 -47
-44 -36 -134 21 -172 49 -32 84 -21 301 89 114 58 211 103 215 100 11 -7 11
-853 0 -860 -4 -2 -15 4 -25 15 -10 11 -23 20 -30 20 -7 0 -20 9 -30 20 -10
11 -24 20 -31 20 -7 0 -14 4 -16 8 -4 11 -123 68 -183 87 -69 23 -191 41 -256
39 -80 -3 -200 -14 -208 -19 -4 -2 -30 -7 -57 -11 -27 -3 -52 -8 -56 -11 -6
-3 -15 1478 -9 1510 1 5 2 107 2 226 l0 218 52 24 c114 54 770 390 793 407 33
24 64 91 64 139 0 85 -58 163 -136 182 -54 14 -70 13 -114 -2z m-1055 -2053
c19 -14 19 -27 18 -362 -1 -191 -2 -364 -3 -385 0 -32 -4 -39 -27 -47 -16 -6
-38 -16 -50 -22 -13 -6 -25 -9 -28 -7 -2 3 -4 122 -4 265 1 438 3 534 13 534
5 0 6 3 3 7 -9 8 23 32 43 32 8 0 24 -6 35 -15z m3209 -60 c9 -8 16 -18 17
-22 7 -54 13 -732 6 -739 -2 -2 -28 9 -58 25 l-54 27 0 343 c-1 188 3 342 8
342 4 0 5 5 2 10 -3 6 4 14 17 19 33 14 45 13 62 -5z m-1634 -475 c0 11 4 11
18 -2 17 -15 19 -38 20 -239 1 -191 -1 -228 -16 -255 -20 -41 -26 -41 -42 -3
-7 17 -15 30 -19 30 -3 0 -6 101 -6 223 0 178 3 227 14 241 11 13 16 14 22 4
7 -10 9 -10 9 1z"/>
<path d="M5265 6520 c-64 -14 -155 -82 -155 -116 0 -8 -4 -14 -8 -14 -28 0
-46 -165 -20 -181 10 -7 10 -9 0 -9 -20 0 32 -93 70 -125 43 -36 104 -63 154
-68 44 -4 125 17 163 41 103 67 144 207 94 322 -23 53 -91 130 -116 130 -7 0
-23 6 -37 13 -28 15 -97 18 -145 7z"/>
<path d="M4155 4493 c-38 -7 -82 -15 -97 -17 -43 -8 -107 -26 -203 -58 -49
-16 -99 -31 -110 -34 -11 -2 -29 -8 -40 -14 -35 -18 -336 -120 -460 -157 -132
-39 -183 -51 -308 -74 -98 -17 -185 -24 -332 -23 -156 1 -236 7 -343 27 -46 9
-71 10 -69 4 5 -16 173 -103 272 -141 118 -45 126 -48 150 -53 11 -2 36 -8 55
-13 103 -26 273 -32 405 -13 108 16 225 47 400 107 210 71 357 115 435 131 3
0 37 7 75 15 101 20 424 18 535 -3 115 -22 118 -23 203 -46 166 -47 329 -112
503 -202 l92 -48 141 70 c77 38 143 69 146 69 3 0 24 9 48 20 154 72 481 151
634 154 51 0 93 5 93 9 0 5 5 5 11 1 7 -4 55 -8 108 -10 90 -3 119 -6 181 -20
14 -3 32 -7 40 -8 79 -13 141 -31 460 -137 96 -32 187 -60 202 -63 15 -2 33
-8 39 -11 6 -4 25 -8 43 -10 18 -1 37 -4 42 -7 17 -11 136 -21 244 -21 119 0
228 19 363 65 105 35 328 146 335 167 3 8 1 11 -4 8 -8 -5 -78 -17 -134 -23
-14 -1 -25 -3 -25 -4 0 -12 -384 -18 -475 -6 -48 6 -121 17 -186 30 -47 9
-164 39 -229 59 -38 12 -72 22 -75 22 -12 2 -176 58 -185 64 -5 3 -15 6 -21 7
-6 1 -61 20 -121 42 -133 49 -365 121 -413 128 -19 3 -66 11 -103 18 -72 14
-302 14 -372 1 -92 -17 -248 -77 -350 -133 -92 -52 -266 -194 -387 -316 l-48
-49 -59 59 c-179 181 -327 290 -487 358 -49 21 -96 42 -105 46 -9 5 -62 18
-118 29 -116 24 -277 26 -396 4z"/>
<path d="M4248 4115 c-1 -1 -34 -6 -73 -9 -199 -18 -246 -26 -359 -62 -43 -13
-90 -26 -105 -27 -26 -3 -110 -27 -257 -73 -44 -14 -87 -26 -95 -28 -21 -4
-95 -24 -174 -48 -38 -11 -84 -21 -101 -22 -16 -2 -34 -5 -40 -8 -11 -6 -76
-19 -119 -24 -16 -1 -40 -5 -52 -8 -51 -11 -162 -24 -282 -31 -109 -7 -110
-15 -5 -45 100 -29 159 -35 354 -34 156 0 241 5 320 18 14 3 43 7 65 11 22 3
80 13 129 21 49 8 95 13 102 10 7 -3 16 -1 18 3 3 5 27 11 53 15 27 3 59 8 73
10 183 31 320 41 530 41 169 -1 345 -11 362 -21 3 -2 28 -7 55 -10 26 -3 55
-7 63 -9 8 -2 31 -7 50 -10 19 -3 53 -11 75 -17 22 -5 45 -11 50 -13 30 -7 44
-20 50 -48 10 -42 9 -38 27 -72 19 -35 53 -67 88 -82 15 -6 123 -10 282 -9
242 1 258 2 284 22 40 30 64 65 84 125 l19 54 68 18 c37 9 79 19 93 22 14 3
36 7 50 10 14 3 43 8 65 10 22 3 54 7 70 10 79 13 206 20 370 20 220 -1 330
-11 565 -50 50 -8 276 -44 315 -50 23 -3 52 -8 65 -11 134 -29 557 -25 640 6
14 5 44 14 68 20 45 11 57 30 20 30 -23 0 -47 2 -178 14 -64 6 -125 14 -165
22 -11 3 -36 6 -55 9 -19 2 -57 9 -85 15 -27 7 -60 14 -71 15 -24 3 -260 67
-339 92 -27 8 -57 17 -65 18 -8 2 -15 4 -15 5 0 1 -7 3 -15 5 -8 2 -40 11 -70
20 -30 9 -82 22 -115 30 -34 8 -81 21 -106 29 -25 9 -56 18 -70 20 -13 3 -25
5 -26 7 -5 3 -15 5 -78 13 -33 5 -73 10 -90 13 -16 2 -91 6 -165 8 -143 3
-244 -8 -390 -45 -47 -11 -93 -23 -103 -25 -65 -15 -179 -61 -322 -130 -60
-29 -145 -63 -187 -76 l-78 -22 -77 23 c-43 12 -127 46 -188 75 -138 66 -167
78 -235 103 -62 22 -257 72 -310 78 -19 3 -44 7 -55 10 -11 2 -56 7 -100 10
-44 3 -85 7 -92 9 -6 2 -13 2 -15 0z"/>
<path d="M3129 3309 c0 -10 0 -190 0 -399 0 -209 0 -398 0 -420 l1 -40 115 0
115 0 0 440 0 439 -115 0 c-106 -1 -115 -3 -116 -20z"/>
<path d="M3649 3328 c-1 -2 -2 -200 -3 -441 l-1 -439 275 4 c260 4 278 5 335
27 145 57 203 191 139 320 -21 42 -37 58 -81 83 l-55 31 29 12 c63 26 98 106
88 196 -11 98 -83 168 -200 195 -28 6 -523 17 -526 12z m491 -225 c24 -30 20
-62 -11 -85 -21 -16 -43 -19 -120 -20 -162 -1 -146 -8 -146 68 l0 66 129 -4
c120 -3 131 -5 148 -25z m-25 -317 c19 -8 40 -27 47 -41 10 -22 8 -30 -9 -53
-26 -35 -47 -40 -175 -41 -121 -1 -115 -6 -110 90 l4 59 104 0 c69 0 117 -5
139 -14z"/>
<path d="M4667 3323 c-4 -3 -7 -201 -7 -440 l0 -433 118 0 117 0 0 172 0 173
175 0 175 0 3 -173 2 -172 118 0 117 0 -2 432 c-1 238 -2 436 -2 440 -1 4 -53
7 -116 7 l-115 -1 0 -169 0 -168 -142 -3 c-79 -2 -160 -2 -180 0 l-37 3 0 147
c0 81 0 157 0 169 -1 21 -5 22 -109 22 -60 0 -112 -2 -115 -6z"/>
<path d="M5769 3320 c-1 -3 -2 -200 -3 -437 l-1 -433 40 -1 c58 -1 635 -1 668
0 l27 1 0 100 0 100 -250 0 c-215 0 -250 2 -251 15 0 8 -1 33 -1 55 0 86 -24
78 215 78 116 0 219 1 228 1 13 1 16 17 16 96 l1 95 -234 0 -234 0 1 65 2 65
248 0 249 0 0 103 0 102 -360 0 c-198 0 -361 -2 -361 -5z"/>
<path d="M6769 3327 c-1 -1 -2 -199 -3 -439 l-1 -438 117 0 117 0 0 118 c-1
64 -1 133 0 152 l1 36 73 -2 c39 -1 76 -2 80 -3 5 -1 28 -21 52 -46 48 -51 96
-137 116 -207 l13 -48 129 0 129 0 -7 38 c-16 84 -89 207 -161 271 l-45 39 28
7 c48 10 116 68 146 124 68 124 26 274 -97 346 -78 45 -133 52 -419 53 -147 1
-268 0 -268 -1z m511 -210 c13 -7 32 -24 43 -39 17 -22 18 -33 11 -60 -15 -53
-51 -64 -201 -62 -71 1 -131 2 -135 3 -3 0 -6 39 -6 86 l0 86 133 -2 c77 0
142 -6 155 -12z"/>
<path d="M3119 2233 c-1 -35 -1 -256 0 -265 1 -5 8 -8 16 -8 12 0 15 13 15 60
l0 60 53 0 c39 0 59 5 74 20 45 41 36 132 -14 151 -13 5 -51 9 -84 9 -58 0
-59 -1 -60 -27z m148 -43 c20 -41 -3 -64 -66 -68 l-51 -3 0 51 0 51 52 -3 c44
-3 54 -7 65 -28z"/>
<path d="M3519 2243 c-1 -44 1 -190 4 -203 12 -59 47 -85 103 -77 73 10 86 37
88 187 1 95 -1 110 -15 110 -14 0 -16 -15 -16 -105 -1 -123 -14 -155 -63 -155
-58 0 -70 26 -70 150 0 91 -3 110 -15 110 -8 0 -15 -8 -16 -17z"/>
<path d="M3938 2163 c-2 -54 -2 -122 0 -150 l3 -53 94 0 c83 0 93 2 91 18 -2
14 -15 17 -79 20 l-77 3 0 49 0 50 70 0 c63 0 70 2 70 20 0 18 -7 20 -70 20
l-70 0 0 40 0 40 75 0 c68 0 75 2 75 20 0 19 -7 20 -89 20 l-90 0 -3 -97z"/>
<path d="M4335 2113 l1 -148 58 -3 c33 -2 72 2 87 8 49 21 58 93 17 137 -12
13 -17 23 -10 23 16 0 25 37 18 74 -8 41 -38 56 -114 56 l-57 0 0 -147z m139
85 c18 -30 -4 -53 -56 -56 -43 -3 -46 -2 -50 26 -7 47 0 53 49 50 31 -2 50 -9
57 -20z m-3 -108 c23 -13 25 -53 3 -75 -12 -11 -30 -15 -62 -13 -41 3 -46 6
-45 26 0 12 1 33 2 47 1 22 5 25 42 25 22 0 49 -5 60 -10z"/>
<path d="M4738 2253 c-2 -5 -4 -71 -4 -148 l1 -140 78 -3 c72 -3 77 -1 77 18
0 18 -6 20 -60 20 -69 0 -62 -17 -61 158 1 82 -2 102 -13 102 -8 0 -16 -3 -18
-7z"/>
<path d="M5154 2244 c-44 -21 -63 -63 -65 -139 -3 -101 69 -164 156 -135 48
16 74 56 78 121 9 126 -73 200 -169 153z m90 -35 c33 -16 50 -59 44 -119 -8
-83 -76 -117 -134 -66 -25 21 -28 30 -29 86 0 56 3 64 28 86 31 27 54 30 91
13z"/>
<path d="M5799 2243 c-1 -21 -1 -265 0 -275 1 -5 8 -8 16 -8 12 0 15 20 15
118 l0 117 67 -117 c76 -134 95 -147 95 -68 0 209 -3 250 -17 250 -12 0 -15
-20 -15 -117 l0 -118 -67 118 c-63 110 -92 141 -94 100z"/>
<path d="M6220 2151 c0 -130 10 -166 52 -180 43 -15 65 -14 98 6 36 21 45 59
45 183 0 79 -3 95 -16 98 -14 2 -16 -12 -16 -108 -1 -91 -4 -115 -19 -131 -22
-25 -69 -24 -94 1 -18 18 -20 33 -20 130 0 91 -3 110 -15 110 -12 0 -15 -19
-15 -109z"/>
<path d="M6639 2228 c0 -33 0 -203 1 -246 0 -22 2 -23 93 -20 74 2 92 6 92 18
0 12 -17 16 -77 18 l-78 3 0 49 0 50 70 0 c63 0 70 2 70 20 0 18 -7 20 -70 20
l-70 0 0 40 0 40 75 0 c68 0 75 2 75 20 0 19 -7 20 -90 20 l-90 0 -1 -32z"/>
<path d="M7030 2203 c96 -302 93 -300 161 -93 26 80 46 147 44 149 -16 15 -36
-24 -70 -134 -31 -102 -40 -123 -46 -104 -4 13 -22 72 -40 132 -25 82 -36 107
-50 107 -16 0 -16 -3 1 -57z"/>
<path d="M7501 2249 c-47 -19 -73 -70 -72 -141 0 -63 25 -113 66 -132 41 -20
56 -20 100 -2 64 27 92 137 53 215 -30 61 -88 85 -147 60z m82 -40 c31 -14 47
-48 47 -100 0 -95 -73 -140 -137 -85 -25 22 -28 31 -28 86 1 55 4 65 28 86 31
26 54 30 90 13z"/>
</g>
</svg>
